<svg width="24" height="24" viewBox="0 0 24 24" fill="none" xmlns="http://www.w3.org/2000/svg">
<path d="M10.7096 23.6668H13.2904C17.3114 23.6668 19.3219 23.6668 20.6928 22.4864C22.0637 21.3059 22.348 19.3299 22.9167 15.3779L23.2419 13.1177C23.6846 10.0411 23.9059 8.50283 23.2754 7.1876C22.6449 5.87236 21.3028 5.07289 18.6186 3.47394L17.003 2.51151C14.5654 1.0595 13.3467 0.333496 12 0.333496C10.6533 0.333496 9.43455 1.0595 6.99705 2.51151L6.99704 2.51151L5.3814 3.47394L5.38139 3.47395C2.69722 5.07289 1.35513 5.87237 0.724593 7.1876C0.0940552 8.50283 0.315398 10.0411 0.758083 13.1177L1.08331 15.3779C1.65196 19.3299 1.93629 21.3059 3.3072 22.4864C4.67811 23.6668 6.6886 23.6668 10.7096 23.6668Z" fill="#FFCE48"/>
</svg>
