<svg width="14" height="18" viewBox="0 0 14 18" fill="none" xmlns="http://www.w3.org/2000/svg">
<path fill-rule="evenodd" clip-rule="evenodd" d="M2.31297 15.3101C1.91499 15.1679 1.58808 14.9688 1.30959 14.6903C0.497652 13.8784 0.360955 12.6549 0.337941 10.4583H13.662C13.6389 12.6549 13.5022 13.8784 12.6903 14.6903C12.4119 14.9688 12.085 15.1678 11.6872 15.3101L12.5591 17.0539C12.7135 17.3627 12.5883 17.7381 12.2796 17.8925C11.9709 18.0468 11.5954 17.9217 11.4411 17.613L10.4211 15.5731C9.54747 15.6666 8.43828 15.6666 6.99995 15.6666C5.56176 15.6666 4.45265 15.6666 3.57904 15.5731L2.5591 17.613C2.40473 17.9217 2.02931 18.0468 1.72058 17.8925C1.41184 17.7381 1.2867 17.3627 1.44107 17.0539L2.31297 15.3101ZM9.29162 12.3333C9.29162 11.9881 9.57144 11.7083 9.91662 11.7083H11.1666C11.5118 11.7083 11.7916 11.9881 11.7916 12.3333C11.7916 12.6785 11.5118 12.9583 11.1666 12.9583H9.91662C9.57144 12.9583 9.29162 12.6785 9.29162 12.3333ZM2.83328 11.7083C2.4881 11.7083 2.20828 11.9881 2.20828 12.3333C2.20828 12.6785 2.4881 12.9583 2.83328 12.9583H4.08328C4.42846 12.9583 4.70828 12.6785 4.70828 12.3333C4.70828 11.9881 4.42846 11.7083 4.08328 11.7083H2.83328Z" fill="#B3B3B3"/>
<path d="M13.6666 9.20831V7.33331C13.6666 4.19062 13.6666 2.61927 12.6903 1.64296C11.9579 0.910554 10.8906 0.727581 9.07633 0.68187C8.85124 0.676199 8.66662 0.858159 8.66662 1.08331C8.66662 2.00379 7.92042 2.74998 6.99995 2.74998C6.07947 2.74998 5.33328 2.00379 5.33328 1.08331C5.33328 0.858159 5.14865 0.676199 4.92357 0.68187C3.10927 0.727581 2.042 0.910554 1.30959 1.64296C0.333282 2.61927 0.333282 4.19062 0.333282 7.33331V9.20831H13.6666Z" fill="#B3B3B3"/>
</svg>
